<svg xmlns="http://www.w3.org/2000/svg" width="32" height="32" viewBox="0 0 32 32" fill="none">
  <rect width="32" height="32" rx="8" fill="#1a1a26"/>
  <g transform="translate(4 4)" stroke="#a78bfa" stroke-width="1.75" stroke-linecap="round" stroke-linejoin="round">
    <!-- Gamepad2 icon from Lucide scaled to 24x24 -->
    <path d="M6 11h4"/>
    <path d="M8 9v4"/>
    <path d="M15 12h0.01"/>
    <path d="M18 10h0.01"/>
    <path d="M17.32 5H6.68a4 4 0 0 0-3.978 3.59c-.006.052-.01.101-.017.152C2.604 9.416 2 14.456 2 16a3 3 0 1 0 6 0c0-.874.654-1.576 1.399-2.1.386-.272.815-.5 1.271-.65A4.4 4.4 0 0 1 12 13a4.4 4.4 0 0 1 1.33.25c.456.15.885.378 1.27.65C15.347 14.424 16 15.126 16 16a3 3 0 1 0 6 0c0-1.544-.604-6.584-.685-7.258-.007-.05-.011-.1-.017-.151A4 4 0 0 0 17.32 5z"/>
  </g>
</svg>
